<?xml version="1.0" encoding="UTF-8" standalone="no"?>
<svg
   xmlns:dc="http://purl.org/dc/elements/1.1/"
   xmlns:cc="http://creativecommons.org/ns#"
   xmlns:rdf="http://www.w3.org/1999/02/22-rdf-syntax-ns#"
   xmlns:svg="http://www.w3.org/2000/svg"
   xmlns="http://www.w3.org/2000/svg"
   xmlns:sodipodi="http://sodipodi.sourceforge.net/DTD/sodipodi-0.dtd"
   xmlns:inkscape="http://www.inkscape.org/namespaces/inkscape"
   width="48"
   height="48"
   viewBox="0 0 48 48"
   version="1.1"
   id="svg4511"
   sodipodi:docname="ic_right.svg"
   inkscape:version="0.92.1 r15371">
  <metadata
     id="metadata4517">
    <rdf:RDF>
      <cc:Work
         rdf:about="">
        <dc:format>image/svg+xml</dc:format>
        <dc:type
           rdf:resource="http://purl.org/dc/dcmitype/StillImage" />
      </cc:Work>
    </rdf:RDF>
  </metadata>
  <defs
     id="defs4515" />
  <sodipodi:namedview
     pagecolor="#ffffff"
     bordercolor="#666666"
     borderopacity="1"
     objecttolerance="10"
     gridtolerance="10"
     guidetolerance="10"
     inkscape:pageopacity="0"
     inkscape:pageshadow="2"
     inkscape:window-width="1920"
     inkscape:window-height="1027"
     id="namedview4513"
     showgrid="false"
     inkscape:zoom="17.583333"
     inkscape:cx="24"
     inkscape:cy="24"
     inkscape:window-x="-8"
     inkscape:window-y="-8"
     inkscape:window-maximized="1"
     inkscape:current-layer="svg4511" />
  <path
     style="fill:#eaeaea;fill-opacity:1"
     d="m 20,12 c -0.943333,0.943333 -1.886667,1.886667 -2.83,2.83 3.056667,3.056667 6.113333,6.113333 9.17,9.17 -3.056667,3.056667 -6.113333,6.113333 -9.17,9.17 0.943333,0.943333 1.886667,1.886667 2.83,2.83 4,-4 8,-8 12,-12 -4,-4 -8,-8 -12,-12 z"
     id="path4507"
     inkscape:connector-curvature="0" />
  <path
     style="fill:none"
     d="m 0,0 c 16,0 32,0 48,0 0,16 0,32 0,48 C 32,48 16,48 0,48 0,32 0,16 0,0 Z"
     id="path4509"
     inkscape:connector-curvature="0" />
</svg>
